<mxfile host="app.diagrams.net" modified="2023-02-22T13:14:32.807Z" agent="5.0 (Windows)" etag="tEr8qcfp0mHImiwVRM6w" version="20.5.3" type="github">
  <diagram name="Seite-1" id="E6457HWmK181q3skTpQV">
    <mxGraphModel dx="1422" dy="772" grid="1" gridSize="10" guides="1" tooltips="1" connect="1" arrows="1" fold="1" page="1" pageScale="1" pageWidth="1169" pageHeight="827" math="0" shadow="0">
      <root>
        <mxCell id="0" />
        <mxCell id="1" parent="0" />
        <mxCell id="fuIkv5NPpX5S1BYm-9u--3" style="edgeStyle=orthogonalEdgeStyle;rounded=0;orthogonalLoop=1;jettySize=auto;html=1;exitX=1;exitY=0.5;exitDx=0;exitDy=0;entryX=0;entryY=0.5;entryDx=0;entryDy=0;" parent="1" source="fuIkv5NPpX5S1BYm-9u--1" target="fuIkv5NPpX5S1BYm-9u--2" edge="1">
          <mxGeometry relative="1" as="geometry" />
        </mxCell>
        <mxCell id="fuIkv5NPpX5S1BYm-9u--14" style="edgeStyle=orthogonalEdgeStyle;rounded=0;orthogonalLoop=1;jettySize=auto;html=1;exitX=0.5;exitY=1;exitDx=0;exitDy=0;entryX=0;entryY=0.5;entryDx=0;entryDy=0;" parent="1" source="fuIkv5NPpX5S1BYm-9u--1" target="fuIkv5NPpX5S1BYm-9u--13" edge="1">
          <mxGeometry relative="1" as="geometry" />
        </mxCell>
        <mxCell id="fuIkv5NPpX5S1BYm-9u--1" value="autostart.py" style="rounded=0;whiteSpace=wrap;html=1;fillColor=#d5e8d4;strokeColor=#82b366;" parent="1" vertex="1">
          <mxGeometry x="180" y="380" width="120" height="80" as="geometry" />
        </mxCell>
        <mxCell id="fuIkv5NPpX5S1BYm-9u--8" style="edgeStyle=orthogonalEdgeStyle;rounded=0;orthogonalLoop=1;jettySize=auto;html=1;exitX=1;exitY=0.5;exitDx=0;exitDy=0;entryX=0.25;entryY=1;entryDx=0;entryDy=0;" parent="1" source="fuIkv5NPpX5S1BYm-9u--2" target="fuIkv5NPpX5S1BYm-9u--7" edge="1">
          <mxGeometry relative="1" as="geometry" />
        </mxCell>
        <mxCell id="fuIkv5NPpX5S1BYm-9u--15" style="edgeStyle=orthogonalEdgeStyle;rounded=0;orthogonalLoop=1;jettySize=auto;html=1;exitX=0.5;exitY=1;exitDx=0;exitDy=0;entryX=0.5;entryY=0;entryDx=0;entryDy=0;" parent="1" source="fuIkv5NPpX5S1BYm-9u--2" target="fuIkv5NPpX5S1BYm-9u--13" edge="1">
          <mxGeometry relative="1" as="geometry" />
        </mxCell>
        <mxCell id="fuIkv5NPpX5S1BYm-9u--2" value="main.py" style="rounded=0;whiteSpace=wrap;html=1;fillColor=#d5e8d4;strokeColor=#82b366;" parent="1" vertex="1">
          <mxGeometry x="450" y="390" width="120" height="60" as="geometry" />
        </mxCell>
        <mxCell id="fuIkv5NPpX5S1BYm-9u--5" style="edgeStyle=orthogonalEdgeStyle;rounded=0;orthogonalLoop=1;jettySize=auto;html=1;exitX=0.5;exitY=0;exitDx=0;exitDy=0;entryX=0.5;entryY=1;entryDx=0;entryDy=0;" parent="1" source="fuIkv5NPpX5S1BYm-9u--2" target="fuIkv5NPpX5S1BYm-9u--4" edge="1">
          <mxGeometry relative="1" as="geometry">
            <mxPoint x="570" y="280" as="targetPoint" />
          </mxGeometry>
        </mxCell>
        <mxCell id="fuIkv5NPpX5S1BYm-9u--6" style="edgeStyle=orthogonalEdgeStyle;rounded=0;orthogonalLoop=1;jettySize=auto;html=1;exitX=0.75;exitY=1;exitDx=0;exitDy=0;entryX=0.75;entryY=0;entryDx=0;entryDy=0;" parent="1" source="fuIkv5NPpX5S1BYm-9u--4" target="fuIkv5NPpX5S1BYm-9u--2" edge="1">
          <mxGeometry relative="1" as="geometry" />
        </mxCell>
        <mxCell id="fuIkv5NPpX5S1BYm-9u--11" style="edgeStyle=orthogonalEdgeStyle;rounded=0;orthogonalLoop=1;jettySize=auto;html=1;exitX=0.5;exitY=0;exitDx=0;exitDy=0;entryX=0.5;entryY=1;entryDx=0;entryDy=0;" parent="1" source="fuIkv5NPpX5S1BYm-9u--4" target="fuIkv5NPpX5S1BYm-9u--10" edge="1">
          <mxGeometry relative="1" as="geometry" />
        </mxCell>
        <mxCell id="VQPu16ZYs_DhSBNvMrw4-5" style="edgeStyle=orthogonalEdgeStyle;rounded=0;orthogonalLoop=1;jettySize=auto;html=1;exitX=0;exitY=0.25;exitDx=0;exitDy=0;entryX=1;entryY=0.25;entryDx=0;entryDy=0;" edge="1" parent="1" source="fuIkv5NPpX5S1BYm-9u--4" target="fuIkv5NPpX5S1BYm-9u--16">
          <mxGeometry relative="1" as="geometry" />
        </mxCell>
        <mxCell id="VQPu16ZYs_DhSBNvMrw4-7" style="edgeStyle=orthogonalEdgeStyle;rounded=0;orthogonalLoop=1;jettySize=auto;html=1;exitX=1;exitY=0.5;exitDx=0;exitDy=0;entryX=0.5;entryY=0;entryDx=0;entryDy=0;" edge="1" parent="1" source="fuIkv5NPpX5S1BYm-9u--4" target="fuIkv5NPpX5S1BYm-9u--7">
          <mxGeometry relative="1" as="geometry" />
        </mxCell>
        <mxCell id="fuIkv5NPpX5S1BYm-9u--4" value="config.py" style="rounded=0;whiteSpace=wrap;html=1;fillColor=#dae8fc;strokeColor=#6c8ebf;" parent="1" vertex="1">
          <mxGeometry x="450" y="240" width="120" height="60" as="geometry" />
        </mxCell>
        <mxCell id="fuIkv5NPpX5S1BYm-9u--9" style="edgeStyle=orthogonalEdgeStyle;rounded=0;orthogonalLoop=1;jettySize=auto;html=1;exitX=0.5;exitY=1;exitDx=0;exitDy=0;entryX=1;entryY=0.75;entryDx=0;entryDy=0;" parent="1" source="fuIkv5NPpX5S1BYm-9u--7" target="fuIkv5NPpX5S1BYm-9u--2" edge="1">
          <mxGeometry relative="1" as="geometry">
            <Array as="points">
              <mxPoint x="750" y="435" />
            </Array>
          </mxGeometry>
        </mxCell>
        <mxCell id="VQPu16ZYs_DhSBNvMrw4-8" style="edgeStyle=orthogonalEdgeStyle;rounded=0;orthogonalLoop=1;jettySize=auto;html=1;exitX=0.5;exitY=1;exitDx=0;exitDy=0;entryX=1;entryY=0.5;entryDx=0;entryDy=0;" edge="1" parent="1" source="fuIkv5NPpX5S1BYm-9u--7" target="fuIkv5NPpX5S1BYm-9u--13">
          <mxGeometry relative="1" as="geometry" />
        </mxCell>
        <mxCell id="fuIkv5NPpX5S1BYm-9u--7" value="writeInHTML.py" style="rounded=0;whiteSpace=wrap;html=1;fillColor=#dae8fc;strokeColor=#6c8ebf;" parent="1" vertex="1">
          <mxGeometry x="690" y="290" width="120" height="60" as="geometry" />
        </mxCell>
        <mxCell id="fuIkv5NPpX5S1BYm-9u--12" style="edgeStyle=orthogonalEdgeStyle;rounded=0;orthogonalLoop=1;jettySize=auto;html=1;exitX=0.75;exitY=1;exitDx=0;exitDy=0;entryX=0.75;entryY=0;entryDx=0;entryDy=0;" parent="1" source="fuIkv5NPpX5S1BYm-9u--10" target="fuIkv5NPpX5S1BYm-9u--4" edge="1">
          <mxGeometry relative="1" as="geometry" />
        </mxCell>
        <mxCell id="fuIkv5NPpX5S1BYm-9u--10" value="config.txt" style="rounded=0;whiteSpace=wrap;html=1;fillColor=#fff2cc;strokeColor=#d6b656;" parent="1" vertex="1">
          <mxGeometry x="450" y="100" width="120" height="60" as="geometry" />
        </mxCell>
        <mxCell id="fuIkv5NPpX5S1BYm-9u--13" value="index.html" style="rounded=0;whiteSpace=wrap;html=1;fillColor=#fff2cc;strokeColor=#d6b656;" parent="1" vertex="1">
          <mxGeometry x="330" y="570" width="120" height="60" as="geometry" />
        </mxCell>
        <mxCell id="VQPu16ZYs_DhSBNvMrw4-6" style="edgeStyle=orthogonalEdgeStyle;rounded=0;orthogonalLoop=1;jettySize=auto;html=1;exitX=1;exitY=0.5;exitDx=0;exitDy=0;entryX=0;entryY=0.5;entryDx=0;entryDy=0;" edge="1" parent="1" source="fuIkv5NPpX5S1BYm-9u--16" target="fuIkv5NPpX5S1BYm-9u--4">
          <mxGeometry relative="1" as="geometry" />
        </mxCell>
        <mxCell id="fuIkv5NPpX5S1BYm-9u--16" value="/media/" style="rounded=0;whiteSpace=wrap;html=1;fillColor=#fff2cc;strokeColor=#d6b656;" parent="1" vertex="1">
          <mxGeometry x="250" y="240" width="120" height="60" as="geometry" />
        </mxCell>
      </root>
    </mxGraphModel>
  </diagram>
</mxfile>
